<svg xmlns="http://www.w3.org/2000/svg" viewBox="0 0 212.96 58.56"><defs><style>.cls-1{fill:none;}.cls-1,.cls-2{stroke:#052a4e;stroke-miterlimit:10;stroke-width:3px;}.cls-2{fill:#fff;}.cls-3{fill:#062b4f;}</style></defs><title>Reaction-design-system-logo</title><g id="Layer_2" data-name="Layer 2"><g id="Layer_1-2" data-name="Layer 1"><path class="cls-1" d="M28.3,36.07H2.72l21-33.25L36.48,23.26"/><circle class="cls-2" cx="46.33" cy="38.99" r="18.08"/><path class="cls-3" d="M105.28,15a6.89,6.89,0,0,1-3.53,2.32l5.77,9.94h-4.45l-5.35-9.47h-3.8v9.47H90.06V4.13h8.29a14.16,14.16,0,0,1,3,.32A7.72,7.72,0,0,1,104,5.52a5.79,5.79,0,0,1,1.9,2,6.3,6.3,0,0,1,.73,3.19A6.63,6.63,0,0,1,105.28,15Zm-3.9-6.84a6.85,6.85,0,0,0-3.66-.8h-3.8v7.29H98a5.19,5.19,0,0,0,3.55-1,3.57,3.57,0,0,0,1.11-2.79A3,3,0,0,0,101.38,8.14Z"/><path class="cls-3" d="M120.84,26.63a7.55,7.55,0,0,1-4.11,1,8.29,8.29,0,0,1-3.22-.6,6.66,6.66,0,0,1-2.44-1.68,7.57,7.57,0,0,1-1.55-2.61,9.82,9.82,0,0,1-.55-3.4,9.71,9.71,0,0,1,.55-3.36,7.22,7.22,0,0,1,1.55-2.59,6.82,6.82,0,0,1,2.41-1.67,7.81,7.81,0,0,1,3.11-.6,7.51,7.51,0,0,1,3.27.66,6.56,6.56,0,0,1,2.3,1.77,7.61,7.61,0,0,1,1.35,2.57,10.39,10.39,0,0,1,.44,3.06v1.05H112.8a7.44,7.44,0,0,0,.26,1.72,4.76,4.76,0,0,0,.7,1.47,3.21,3.21,0,0,0,1.17,1,3.61,3.61,0,0,0,1.76.38,3.35,3.35,0,0,0,2.23-.66,4.72,4.72,0,0,0,1.24-1.68l3.23,1.29A7.31,7.31,0,0,1,120.84,26.63ZM114,15a5,5,0,0,0-1.08,2.81h7.32a4.14,4.14,0,0,0-1-2.89,3.47,3.47,0,0,0-2.58-1A3.27,3.27,0,0,0,114,15Z"/><path class="cls-3" d="M136.53,26.45a6.81,6.81,0,0,1-.1-1.23A6,6,0,0,1,134.5,27a6.08,6.08,0,0,1-3.06.68,5.81,5.81,0,0,1-3.81-1.19,4,4,0,0,1-1.43-3.27,4,4,0,0,1,.84-2.62,5.92,5.92,0,0,1,2.24-1.67,12.24,12.24,0,0,1,3.24-.89,26.33,26.33,0,0,1,3.84-.26v-1a2.92,2.92,0,0,0-.69-2,2.77,2.77,0,0,0-2.18-.78,3,3,0,0,0-2.21.73,2.42,2.42,0,0,0-.76,1.71l-3.63-.53a4.56,4.56,0,0,1,.71-2,5,5,0,0,1,1.48-1.46,7.13,7.13,0,0,1,2.08-.91,9.42,9.42,0,0,1,2.46-.32,8.76,8.76,0,0,1,2.59.37,5.83,5.83,0,0,1,2,1.07,4.9,4.9,0,0,1,1.32,1.77,5.92,5.92,0,0,1,.48,2.47v8.25a6.72,6.72,0,0,0,.09,1.21,7.75,7.75,0,0,0,.27.94h-3.63A2.52,2.52,0,0,1,136.53,26.45Zm-2.63-1.79a3.91,3.91,0,0,0,1.26-.67,3.51,3.51,0,0,0,.87-1.08,3,3,0,0,0,.33-1.45V20.17a14.39,14.39,0,0,0-4.69.63A2.27,2.27,0,0,0,129.89,23a1.6,1.6,0,0,0,.73,1.44,3.28,3.28,0,0,0,1.85.47A4.41,4.41,0,0,0,133.9,24.66Z"/><path class="cls-3" d="M143.44,16.05A7.57,7.57,0,0,1,145,13.44a6.79,6.79,0,0,1,2.44-1.68,9,9,0,0,1,5.65-.27,6.53,6.53,0,0,1,1.83.91,5.58,5.58,0,0,1,1.33,1.37,9.19,9.19,0,0,1,.94,1.72l-3.4,1.29a3.73,3.73,0,0,0-1.13-2,3.5,3.5,0,0,0-3.83-.26,3.54,3.54,0,0,0-1.17,1.17,5.09,5.09,0,0,0-.68,1.7,9.43,9.43,0,0,0-.22,2,9,9,0,0,0,.22,2,5.25,5.25,0,0,0,.68,1.68,3.51,3.51,0,0,0,1.17,1.19,3.16,3.16,0,0,0,1.73.45,2.85,2.85,0,0,0,2.1-.73,5.37,5.37,0,0,0,1.13-1.78l3.47,1.32a11.64,11.64,0,0,1-1.07,1.62,7.61,7.61,0,0,1-1.4,1.32,6.85,6.85,0,0,1-1.82.89,7.6,7.6,0,0,1-2.34.33,8.2,8.2,0,0,1-3.21-.6A7,7,0,0,1,145,25.41a7.39,7.39,0,0,1-1.55-2.59,10.14,10.14,0,0,1-.55-3.4A10,10,0,0,1,143.44,16.05Z"/><path class="cls-3" d="M167.86,27.49a8.43,8.43,0,0,1-1.77.18,4.92,4.92,0,0,1-3.43-1.14,4.25,4.25,0,0,1-1.25-3.32V14.37h-2.64V11.59h2.64V7.14l3.73-1.72v6.17h3.53v2.78h-3.53v8.38a2,2,0,0,0,.41,1.44,1.46,1.46,0,0,0,1.07.41,2.28,2.28,0,0,0,.89-.17,7.63,7.63,0,0,0,.76-.36l1,2.94A6.82,6.82,0,0,1,167.86,27.49Z"/><path class="cls-3" d="M172.61,4.35a2.58,2.58,0,0,1,3.33,0A2.19,2.19,0,0,1,176.59,6,2.25,2.25,0,0,1,176,7.63a2.48,2.48,0,0,1-3.37,0A2.28,2.28,0,0,1,172,6,2.19,2.19,0,0,1,172.61,4.35Zm3.55,7.24V27.24H172.4V11.59Z"/><path class="cls-3" d="M190.74,11.76a6.94,6.94,0,0,1,2.48,1.68,7.62,7.62,0,0,1,1.57,2.61,10,10,0,0,1,.54,3.37,10,10,0,0,1-.54,3.36,7.62,7.62,0,0,1-1.57,2.61,6.82,6.82,0,0,1-2.48,1.68,8.42,8.42,0,0,1-3.26.6,8.51,8.51,0,0,1-3.27-.6,6.66,6.66,0,0,1-2.46-1.68,7.57,7.57,0,0,1-1.55-2.61,10,10,0,0,1-.54-3.36,10,10,0,0,1,.54-3.37,7.57,7.57,0,0,1,1.55-2.61,6.78,6.78,0,0,1,2.46-1.68,8.51,8.51,0,0,1,3.27-.6A8.42,8.42,0,0,1,190.74,11.76Zm-1.48,12.61a3.75,3.75,0,0,0,1.25-1.16,5.39,5.39,0,0,0,.75-1.7,9.26,9.26,0,0,0,0-4.19,5.39,5.39,0,0,0-.75-1.7,3.62,3.62,0,0,0-1.25-1.15,3.53,3.53,0,0,0-1.78-.43,3.44,3.44,0,0,0-1.77.43,3.78,3.78,0,0,0-1.24,1.15,5.37,5.37,0,0,0-.74,1.7,8.9,8.9,0,0,0,0,4.19,5.37,5.37,0,0,0,.74,1.7,3.92,3.92,0,0,0,1.24,1.16,3.54,3.54,0,0,0,1.77.43A3.63,3.63,0,0,0,189.26,24.37Z"/><path class="cls-3" d="M202.1,11.59V14A5.92,5.92,0,0,1,204,12a5.33,5.33,0,0,1,3-.8,7.27,7.27,0,0,1,2.15.33,4.7,4.7,0,0,1,1.76,1,4.58,4.58,0,0,1,1.19,1.65,5.52,5.52,0,0,1,.45,2.3v10.8H208.8v-9.9a3.76,3.76,0,0,0-.25-1.42,2.91,2.91,0,0,0-.66-1,2.54,2.54,0,0,0-.94-.54,3.56,3.56,0,0,0-1.06-.17,3.23,3.23,0,0,0-1.35.3,3.44,3.44,0,0,0-1.17.89,4.42,4.42,0,0,0-.81,1.49,6.35,6.35,0,0,0-.3,2v8.29H198.5V11.59Z"/><path class="cls-3" d="M94.66,37.4a7,7,0,0,1,2.64.48,5.43,5.43,0,0,1,2,1.38,6.1,6.1,0,0,1,1.26,2.2,10.11,10.11,0,0,1,0,5.9,6,6,0,0,1-1.26,2.2,5.3,5.3,0,0,1-2,1.37,7,7,0,0,1-2.64.47H89.94v-14Zm4.26,4.71A4.78,4.78,0,0,0,98,40.35a4.11,4.11,0,0,0-1.51-1.14,5.32,5.32,0,0,0-2.17-.41H91.68V50h2.68a5.16,5.16,0,0,0,2.17-.41A4,4,0,0,0,98,48.45a4.63,4.63,0,0,0,.88-1.76,9.5,9.5,0,0,0,0-4.58Z"/><path class="cls-3" d="M109.69,51a4.06,4.06,0,0,1-2.41.66,4.6,4.6,0,0,1-1.9-.37,3.88,3.88,0,0,1-1.42-1,4.43,4.43,0,0,1-.88-1.58,6.29,6.29,0,0,1-.3-2,6,6,0,0,1,.31-2,4.63,4.63,0,0,1,.88-1.57,4,4,0,0,1,1.4-1,4.59,4.59,0,0,1,1.85-.37,4.24,4.24,0,0,1,1.88.39,3.93,3.93,0,0,1,1.33,1,4.49,4.49,0,0,1,.79,1.5,6.16,6.16,0,0,1,.26,1.77V47h-7a4.82,4.82,0,0,0,.2,1.27,3.59,3.59,0,0,0,.51,1.08,2.25,2.25,0,0,0,.85.74,2.67,2.67,0,0,0,1.24.27,2.24,2.24,0,0,0,1.5-.44,3.32,3.32,0,0,0,.88-1.26l1.48.6A4.63,4.63,0,0,1,109.69,51Zm-4.33-7.19a3.4,3.4,0,0,0-.8,1.93h5.2a2.92,2.92,0,0,0-.77-2,2.43,2.43,0,0,0-1.81-.72A2.31,2.31,0,0,0,105.36,43.79Z"/><path class="cls-3" d="M115.2,45.41a4.61,4.61,0,0,0,1.66.47,13.78,13.78,0,0,1,1.4.3,3.9,3.9,0,0,1,1.15.51,2.48,2.48,0,0,1,.77.81,2.32,2.32,0,0,1,.28,1.2,2.56,2.56,0,0,1-1,2.15,4.48,4.48,0,0,1-2.82.79,4.41,4.41,0,0,1-2.74-.76,3,3,0,0,1-1.16-2.2l1.66-.22a2.06,2.06,0,0,0,.64,1.42,2.43,2.43,0,0,0,1.62.46,2.66,2.66,0,0,0,1.58-.4,1.31,1.31,0,0,0,.56-1.14,1.08,1.08,0,0,0-.54-1,5.75,5.75,0,0,0-1.9-.55,5.14,5.14,0,0,1-2.58-.95A2.25,2.25,0,0,1,113,44.5a2.48,2.48,0,0,1,.29-1.2,2.73,2.73,0,0,1,.79-.87,3.79,3.79,0,0,1,1.15-.53,5.09,5.09,0,0,1,1.37-.18,4.34,4.34,0,0,1,2.55.71,2.75,2.75,0,0,1,1.17,2l-1.66.34a1.93,1.93,0,0,0-.62-1.27,2.24,2.24,0,0,0-1.5-.45,2.39,2.39,0,0,0-1.33.35,1.21,1.21,0,0,0-.53,1.07A1,1,0,0,0,115.2,45.41Z"/><path class="cls-3" d="M122.71,37.48a1.19,1.19,0,0,1,1.58,0,1.05,1.05,0,0,1,.31.8,1,1,0,0,1-.31.76,1.14,1.14,0,0,1-1.58,0,1,1,0,0,1-.31-.76A1.05,1.05,0,0,1,122.71,37.48ZM124.34,42V51.4h-1.68V42Z"/><path class="cls-3" d="M135.25,42.72a1.74,1.74,0,0,0-.45-.06,1.4,1.4,0,0,0-.56.1,1.37,1.37,0,0,0-.34.2,2.52,2.52,0,0,1,.6,1,3.68,3.68,0,0,1,.2,1.16,3.13,3.13,0,0,1-.31,1.43,3,3,0,0,1-.85,1.06,3.59,3.59,0,0,1-1.24.65,4.82,4.82,0,0,1-1.48.22,4.54,4.54,0,0,1-1-.09,3,3,0,0,0-.58-.09,1.41,1.41,0,0,0-.25,0,1.35,1.35,0,0,0-.3.14.93.93,0,0,0-.25.27.78.78,0,0,0-.1.41.54.54,0,0,0,.15.41,1.11,1.11,0,0,0,.5.24,6.52,6.52,0,0,0,.92.15l1.41.12a15.58,15.58,0,0,1,1.77.2,5,5,0,0,1,1.3.41,2,2,0,0,1,.8.7,2.07,2.07,0,0,1,.27,1.11,2.68,2.68,0,0,1-.37,1.46,2.91,2.91,0,0,1-1,1,4.83,4.83,0,0,1-1.51.56,9.75,9.75,0,0,1-1.84.17,9.07,9.07,0,0,1-1.72-.16,4.44,4.44,0,0,1-1.36-.46,2.32,2.32,0,0,1-.9-.79,2.15,2.15,0,0,1-.32-1.18,2.47,2.47,0,0,1,1.36-2.2,1.53,1.53,0,0,1-.76-.61,1.54,1.54,0,0,1-.24-.83,1.72,1.72,0,0,1,.34-1,2.44,2.44,0,0,1,1-.75,3.15,3.15,0,0,1-.81-1,3,3,0,0,1-.35-1.51,3.32,3.32,0,0,1,.32-1.48,3.2,3.2,0,0,1,.86-1.07,4.27,4.27,0,0,1,1.23-.66,4.6,4.6,0,0,1,1.43-.23,5.21,5.21,0,0,1,1.21.14,4.56,4.56,0,0,1,1,.36,3,3,0,0,1,.79-.49,2.85,2.85,0,0,1,1.17-.21,2.69,2.69,0,0,1,1,.16l-.3,1.26A.77.77,0,0,0,135.25,42.72Zm-5.56,8.66a4,4,0,0,1-.81-.14,1.46,1.46,0,0,0-.67.61,2,2,0,0,0-.25,1,1.3,1.3,0,0,0,.8,1.26,4.55,4.55,0,0,0,2,.38,6.29,6.29,0,0,0,1.26-.11,3.36,3.36,0,0,0,1-.33,1.67,1.67,0,0,0,.66-.57,1.38,1.38,0,0,0,.24-.81.94.94,0,0,0-.15-.55,1.14,1.14,0,0,0-.51-.35,4.27,4.27,0,0,0-.94-.21c-.39,0-.86-.08-1.42-.11S130,51.41,129.69,51.38Zm-.44-4.62a2.48,2.48,0,0,0,3.14,0,2.05,2.05,0,0,0,.65-1.64,2.12,2.12,0,0,0-.65-1.66,2.41,2.41,0,0,0-3.14,0,2.12,2.12,0,0,0-.65,1.66A2.05,2.05,0,0,0,129.25,46.76Z"/><path class="cls-3" d="M139.1,42v1.42a4.1,4.1,0,0,1,1.21-1.21,3.23,3.23,0,0,1,1.77-.45,4.31,4.31,0,0,1,1.3.2,3.17,3.17,0,0,1,1.07.59,2.87,2.87,0,0,1,.72,1,3.28,3.28,0,0,1,.27,1.37V51.4h-1.68V45.12a2.16,2.16,0,0,0-.18-.92,2,2,0,0,0-.47-.63,2,2,0,0,0-.65-.36,2.57,2.57,0,0,0-.72-.11,2.32,2.32,0,0,0-1,.22,2.58,2.58,0,0,0-.81.62,3.16,3.16,0,0,0-.56,1,4,4,0,0,0-.21,1.33V51.4h-1.68V42Z"/><path class="cls-3" d="M154.36,41.88a1.51,1.51,0,0,0,.55.66,3.23,3.23,0,0,0,1,.47,11.44,11.44,0,0,0,1.59.35,13.32,13.32,0,0,1,2.08.48,5.47,5.47,0,0,1,1.55.77,3.34,3.34,0,0,1,1,1.15,3.67,3.67,0,0,1,.34,1.66,4.2,4.2,0,0,1-.35,1.72,3.65,3.65,0,0,1-1,1.33,4.54,4.54,0,0,1-1.6.86,6.8,6.8,0,0,1-2.15.31,7,7,0,0,1-2.25-.32,4.69,4.69,0,0,1-1.64-.89,3.89,3.89,0,0,1-1-1.33,4.26,4.26,0,0,1-.4-1.64l1.72-.26a3.87,3.87,0,0,0,.24,1.11,2.6,2.6,0,0,0,.62,1,3.06,3.06,0,0,0,1.09.7,4.45,4.45,0,0,0,1.65.27,3.6,3.6,0,0,0,2.43-.72,2.49,2.49,0,0,0,.83-2,2.57,2.57,0,0,0-.18-1,2,2,0,0,0-.59-.75,3.46,3.46,0,0,0-1.09-.53,11.87,11.87,0,0,0-1.66-.35,7.67,7.67,0,0,1-3.5-1.2,3,3,0,0,1-1.2-2.62,3.7,3.7,0,0,1,.35-1.65,3.57,3.57,0,0,1,1-1.24,4.66,4.66,0,0,1,1.52-.79,6.34,6.34,0,0,1,1.95-.28,5.48,5.48,0,0,1,3.39,1,4.07,4.07,0,0,1,1.57,2.7l-1.72.44a3.3,3.3,0,0,0-.94-2,3.23,3.23,0,0,0-2.32-.73,3.26,3.26,0,0,0-2.26.66A2.25,2.25,0,0,0,154.2,41,2.3,2.3,0,0,0,154.36,41.88Z"/><path class="cls-3" d="M167.14,51.36,163.42,42h1.74l1.28,3.32c.16.43.32.86.49,1.29s.32.84.46,1.21.26.7.37,1,.18.49.22.62h0c0-.13.1-.34.2-.62s.21-.6.35-1l.46-1.21c.17-.43.33-.86.49-1.29.39-1,.81-2.12,1.26-3.32h1.62L167.22,55.4H165.5Z"/><path class="cls-3" d="M175.72,45.41a4.61,4.61,0,0,0,1.66.47,13.78,13.78,0,0,1,1.4.3,3.9,3.9,0,0,1,1.15.51,2.48,2.48,0,0,1,.77.81,2.32,2.32,0,0,1,.28,1.2,2.56,2.56,0,0,1-1,2.15,4.48,4.48,0,0,1-2.82.79,4.39,4.39,0,0,1-2.74-.76,3,3,0,0,1-1.16-2.2l1.66-.22a2,2,0,0,0,.64,1.42,2.43,2.43,0,0,0,1.62.46,2.66,2.66,0,0,0,1.58-.4,1.31,1.31,0,0,0,.56-1.14,1.08,1.08,0,0,0-.54-1,5.75,5.75,0,0,0-1.9-.55,5.14,5.14,0,0,1-2.58-.95,2.25,2.25,0,0,1-.78-1.81,2.37,2.37,0,0,1,.29-1.2,2.61,2.61,0,0,1,.79-.87,3.69,3.69,0,0,1,1.15-.53,5.09,5.09,0,0,1,1.37-.18,4.36,4.36,0,0,1,2.55.71,2.75,2.75,0,0,1,1.17,2l-1.66.34a1.93,1.93,0,0,0-.62-1.27A2.24,2.24,0,0,0,177,43a2.37,2.37,0,0,0-1.33.35,1.19,1.19,0,0,0-.53,1.07A1,1,0,0,0,175.72,45.41Z"/><path class="cls-3" d="M187,51.53a3.74,3.74,0,0,1-1,.11,2.71,2.71,0,0,1-1.08-.19,2,2,0,0,1-.76-.51,2.08,2.08,0,0,1-.45-.74,2.58,2.58,0,0,1-.15-.88V43.24H182V42h1.6v-2.7l1.68-.76V42h2.2v1.28h-2.2v5.92a1.09,1.09,0,0,0,.26.8.91.91,0,0,0,.72.28,1.42,1.42,0,0,0,.5-.08,1.51,1.51,0,0,0,.44-.22l.54,1.32A2.66,2.66,0,0,1,187,51.53Z"/><path class="cls-3" d="M195.61,51a4.06,4.06,0,0,1-2.41.66,4.6,4.6,0,0,1-1.9-.37,3.8,3.8,0,0,1-1.42-1,4.43,4.43,0,0,1-.88-1.58,6.29,6.29,0,0,1-.3-2,6,6,0,0,1,.31-2,4.63,4.63,0,0,1,.88-1.57,3.93,3.93,0,0,1,1.4-1,4.59,4.59,0,0,1,1.85-.37,4.24,4.24,0,0,1,1.88.39,3.93,3.93,0,0,1,1.33,1,4.49,4.49,0,0,1,.79,1.5,6.16,6.16,0,0,1,.26,1.77V47h-7a4.82,4.82,0,0,0,.2,1.27,3.59,3.59,0,0,0,.51,1.08,2.25,2.25,0,0,0,.85.74,2.67,2.67,0,0,0,1.24.27,2.24,2.24,0,0,0,1.5-.44,3.32,3.32,0,0,0,.88-1.26l1.48.6A4.63,4.63,0,0,1,195.61,51Zm-4.33-7.19a3.34,3.34,0,0,0-.8,1.93h5.2a2.92,2.92,0,0,0-.77-2A2.43,2.43,0,0,0,193.1,43,2.31,2.31,0,0,0,191.28,43.79Z"/><path class="cls-3" d="M201.1,42v1.42a3.68,3.68,0,0,1,1.14-1.21,3,3,0,0,1,1.7-.45,3.42,3.42,0,0,1,1.75.44,2.59,2.59,0,0,1,1.09,1.28,3.94,3.94,0,0,1,.5-.63,3.55,3.55,0,0,1,.7-.55,4.27,4.27,0,0,1,.87-.39,3.21,3.21,0,0,1,1-.15,3.7,3.7,0,0,1,1.21.2,2.72,2.72,0,0,1,1.66,1.57,3.45,3.45,0,0,1,.25,1.37V51.4h-1.68V45.12a2.33,2.33,0,0,0-.16-.92,2,2,0,0,0-.41-.63,1.66,1.66,0,0,0-.58-.36,2.19,2.19,0,0,0-.67-.11,2,2,0,0,0-.89.22,2.5,2.5,0,0,0-.76.62,3.11,3.11,0,0,0-.53,1,4.27,4.27,0,0,0-.2,1.33V51.4H205.4V45.12a2.33,2.33,0,0,0-.16-.92,2,2,0,0,0-.42-.63,1.71,1.71,0,0,0-.59-.36,2.24,2.24,0,0,0-.67-.11,1.94,1.94,0,0,0-.88.22,2.59,2.59,0,0,0-.75.62,3.11,3.11,0,0,0-.53,1,4,4,0,0,0-.2,1.33V51.4h-1.68V42Z"/></g></g></svg>