<?xml version="1.0" encoding="UTF-8"?>
<svg width="344px" height="71px" viewBox="0 0 344 71" version="1.1" xmlns="http://www.w3.org/2000/svg" xmlns:xlink="http://www.w3.org/1999/xlink">
    <!-- Generator: Sketch 55.2 (78181) - https://sketchapp.com -->
    <title>Example storefront CL Logo</title>
    <desc>Created with Sketch.</desc>
    <g id="Symbols" stroke="none" stroke-width="1" fill="none" fill-rule="evenodd">
        <g id="Component-library-logo---export" transform="translate(-27.000000, -30.000000)" fill="#052A50" fill-rule="nonzero">
            <g id="Example-storefront-CL-Logo" transform="translate(26.000000, 26.000000)">
                <g id="Title">
                    <path d="M2.61,25 L2.61,4.7 L14.5,4.7 L14.5,6.73 L5.133,6.73 L5.133,13.516 L13.891,13.516 L13.891,15.546 L5.133,15.546 L5.133,22.97 L14.703,22.97 L14.703,25 L2.61,25 Z M16.2958871,25 L21.2548871,17.953 L16.6438871,11.312 L19.4278871,11.312 L22.6758871,16.068 L25.8368871,11.312 L28.3888871,11.312 L23.8938871,17.779 L28.8528871,25 L26.0978871,25 L22.5018871,19.664 L18.9058871,25 L16.2958871,25 Z M39.9287743,25 C39.8514408,24.8453335 39.7789408,24.6036665 39.7112743,24.275 C39.6436078,23.9463335 39.6097743,23.5886665 39.6097743,23.202 C39.1071078,23.8206665 38.4884408,24.333 37.7537743,24.739 C37.0191078,25.145 36.0814408,25.348 34.9407743,25.348 C34.3027743,25.348 33.7131078,25.2561665 33.1717743,25.0725 C32.6304408,24.8888335 32.1567743,24.6326665 31.7507743,24.304 C31.3447743,23.9753335 31.0306078,23.5693335 30.8082743,23.086 C30.5859408,22.6026665 30.4747743,22.071 30.4747743,21.491 C30.4747743,20.5823335 30.7212743,19.8235 31.2142743,19.2145 C31.7072743,18.6055 32.3742743,18.1221665 33.2152743,17.7645 C34.0562743,17.4068335 35.0277743,17.1555 36.1297743,17.0105 C37.2317743,16.8655 38.3821078,16.793 39.5807743,16.793 L39.5807743,15.952 C39.5807743,15.024 39.3391078,14.27 38.8557743,13.69 C38.3724408,13.11 37.6087743,12.82 36.5647743,12.82 C35.5207743,12.82 34.7522743,13.0761665 34.2592743,13.5885 C33.7662743,14.1008335 33.5004408,14.7243335 33.4617743,15.459 L31.0257743,15.111 C31.1031078,14.415 31.3061078,13.8108335 31.6347743,13.2985 C31.9634408,12.7861665 32.3839408,12.356 32.8962743,12.008 C33.4086078,11.66 33.9886078,11.399 34.6362743,11.225 C35.2839408,11.051 35.9557743,10.964 36.6517743,10.964 C38.2951078,10.964 39.5904408,11.3893335 40.5377743,12.24 C41.4851078,13.0906665 41.9587743,14.2506665 41.9587743,15.72 L41.9587743,23.144 C41.9587743,23.5886665 41.9877743,23.9415 42.0457743,24.2025 C42.1037743,24.4635 42.1811078,24.7293335 42.2777743,25 L39.9287743,25 Z M35.6657743,23.463 C36.1684408,23.463 36.6566078,23.376 37.1302743,23.202 C37.6039408,23.028 38.0196078,22.7815 38.3772743,22.4625 C38.7349408,22.1435 39.0249408,21.752 39.2472743,21.288 C39.4696078,20.824 39.5807743,20.302 39.5807743,19.722 L39.5807743,18.533 C38.5947743,18.533 37.6957743,18.5861665 36.8837743,18.6925 C36.0717743,18.7988335 35.3757743,18.9631665 34.7957743,19.1855 C34.2157743,19.4078335 33.7614408,19.6978335 33.4327743,20.0555 C33.1041078,20.4131665 32.9397743,20.8336665 32.9397743,21.317 C32.9397743,22.013 33.1862743,22.5446665 33.6792743,22.912 C34.1722743,23.2793335 34.8344408,23.463 35.6657743,23.463 Z M46.2776614,11.312 L48.5686614,11.312 L48.5686614,13.371 C49.0133279,12.6363335 49.5643279,12.0515 50.2216614,11.6165 C50.8789949,11.1815 51.7006614,10.964 52.6866614,10.964 C53.6533279,10.964 54.4991614,11.1766665 55.2241614,11.602 C55.9491614,12.0273335 56.4759949,12.646 56.8046614,13.458 C56.9979949,13.1486665 57.2396614,12.8441665 57.5296614,12.5445 C57.8196614,12.2448335 58.1579949,11.979 58.5446614,11.747 C58.9313279,11.515 59.3518279,11.3265 59.8061614,11.1815 C60.2604949,11.0365 60.7389949,10.964 61.2416614,10.964 C61.8603279,10.964 62.4451614,11.0606665 62.9961614,11.254 C63.5471614,11.4473335 64.0256614,11.7325 64.4316614,12.1095 C64.8376614,12.4865 65.1614949,12.9601665 65.4031614,13.5305 C65.6448279,14.1008335 65.7656614,14.763 65.7656614,15.517 L65.7656614,25 L63.3296614,25 L63.3296614,15.894 C63.3296614,15.372 63.2523279,14.9273335 63.0976614,14.56 C62.9429949,14.1926665 62.7448279,13.8881665 62.5031614,13.6465 C62.2614949,13.4048335 61.9811614,13.2308335 61.6621614,13.1245 C61.3431614,13.0181665 61.0193279,12.965 60.6906614,12.965 C60.2459949,12.965 59.8158279,13.0713335 59.4001614,13.284 C58.9844949,13.4966665 58.6171614,13.7963335 58.2981614,14.183 C57.9791614,14.5696665 57.7229949,15.0481665 57.5296614,15.6185 C57.3363279,16.1888335 57.2396614,16.8316665 57.2396614,17.547 L57.2396614,25 L54.8036614,25 L54.8036614,15.894 C54.8036614,15.372 54.7263279,14.9273335 54.5716614,14.56 C54.4169949,14.1926665 54.2139949,13.8881665 53.9626614,13.6465 C53.7113279,13.4048335 53.4261614,13.2308335 53.1071614,13.1245 C52.7881614,13.0181665 52.4643279,12.965 52.1356614,12.965 C51.6909949,12.965 51.2656614,13.0713335 50.8596614,13.284 C50.4536614,13.4966665 50.0911614,13.7963335 49.7721614,14.183 C49.4531614,14.5696665 49.1969949,15.0481665 49.0036614,15.6185 C48.8103279,16.1888335 48.7136614,16.8316665 48.7136614,17.547 L48.7136614,25 L46.2776614,25 L46.2776614,11.312 Z M76.9865486,25.348 C75.9038821,25.348 75.0193821,25.1401665 74.3330486,24.7245 C73.6467151,24.3088335 73.0812151,23.8206665 72.6365486,23.26 L72.6365486,30.8 L70.2005486,30.8 L70.2005486,11.312 L72.4915486,11.312 L72.4915486,13.371 C72.6848821,13.0616665 72.9168821,12.762 73.1875486,12.472 C73.4582151,12.182 73.7772151,11.9258335 74.1445486,11.7035 C74.5118821,11.4811665 74.9275486,11.3023335 75.3915486,11.167 C75.8555486,11.0316665 76.3872151,10.964 76.9865486,10.964 C77.8952151,10.964 78.7313821,11.1283335 79.4950486,11.457 C80.2587151,11.7856665 80.9208821,12.2641665 81.4815486,12.8925 C82.0422151,13.5208335 82.4820486,14.2796665 82.8010486,15.169 C83.1200486,16.0583335 83.2795486,17.054 83.2795486,18.156 C83.2795486,19.258 83.1200486,20.2536665 82.8010486,21.143 C82.4820486,22.0323335 82.0422151,22.7911665 81.4815486,23.4195 C80.9208821,24.0478335 80.2587151,24.5263335 79.4950486,24.855 C78.7313821,25.1836665 77.8952151,25.348 76.9865486,25.348 Z M72.6365486,19.084 C72.6365486,19.8573335 72.7670486,20.5146665 73.0280486,21.056 C73.2890486,21.5973335 73.6177151,22.0371665 74.0140486,22.3755 C74.4103821,22.7138335 74.8502151,22.9603335 75.3335486,23.115 C75.8168821,23.2696665 76.2808821,23.347 76.7255486,23.347 C77.3442151,23.347 77.9048821,23.2165 78.4075486,22.9555 C78.9102151,22.6945 79.3355486,22.332 79.6835486,21.868 C80.0315486,21.404 80.2973821,20.853 80.4810486,20.215 C80.6647151,19.577 80.7565486,18.8906665 80.7565486,18.156 C80.7565486,17.4213335 80.6647151,16.735 80.4810486,16.097 C80.2973821,15.459 80.0315486,14.908 79.6835486,14.444 C79.3355486,13.98 78.9102151,13.6175 78.4075486,13.3565 C77.9048821,13.0955 77.3442151,12.965 76.7255486,12.965 C76.2808821,12.965 75.8168821,13.0423335 75.3335486,13.197 C74.8502151,13.3516665 74.4103821,13.5981665 74.0140486,13.9365 C73.6177151,14.2748335 73.2890486,14.7146665 73.0280486,15.256 C72.7670486,15.7973335 72.6365486,16.4546665 72.6365486,17.228 L72.6365486,19.084 Z M86.8154357,4.7 L89.2514357,4.7 L89.2514357,25 L86.8154357,25 L86.8154357,4.7 Z M104.938323,21.868 C104.416323,22.912 103.705823,23.753 102.806823,24.391 C101.907823,25.029 100.742989,25.348 99.3123229,25.348 C98.2876563,25.348 97.3693229,25.1691665 96.5573229,24.8115 C95.7453229,24.4538335 95.0589894,23.9511665 94.4983229,23.3035 C93.9376563,22.6558335 93.5123229,21.8921665 93.2223229,21.0125 C92.9323229,20.1328335 92.7873229,19.171 92.7873229,18.127 C92.7873229,17.1023335 92.9371563,16.1501665 93.2368229,15.2705 C93.5364894,14.3908335 93.9618229,13.632 94.5128229,12.994 C95.0638229,12.356 95.7404894,11.8581665 96.5428229,11.5005 C97.3451563,11.1428335 98.2393229,10.964 99.2253229,10.964 C100.269323,10.964 101.177989,11.1525 101.951323,11.5295 C102.724656,11.9065 103.367489,12.4091665 103.879823,13.0375 C104.392156,13.6658335 104.773989,14.3908335 105.025323,15.2125 C105.276656,16.0341665 105.402323,16.8896665 105.402323,17.779 L105.402323,18.591 L95.2813229,18.591 C95.3006563,19.229 95.3973229,19.8428335 95.5713229,20.4325 C95.7453229,21.0221665 95.9918229,21.5441665 96.3108229,21.9985 C96.6298229,22.4528335 97.0406563,22.8105 97.5433229,23.0715 C98.0459894,23.3325 98.6453229,23.463 99.3413229,23.463 C100.288656,23.463 101.013656,23.2503335 101.516323,22.825 C102.018989,22.3996665 102.444323,21.7906665 102.792323,20.998 L104.938323,21.868 Z M99.1673229,12.849 C98.0653229,12.849 97.1856563,13.2211665 96.5283229,13.9655 C95.8709894,14.7098335 95.4843229,15.6426665 95.3683229,16.764 L102.908323,16.764 C102.850323,15.546 102.478156,14.589 101.791823,13.893 C101.105489,13.197 100.230656,12.849 99.1673229,12.849 Z M117.723097,9.862 C117.723097,10.384 117.800431,10.8286665 117.955097,11.196 C118.109764,11.5633335 118.375597,11.8823335 118.752597,12.153 C119.129597,12.4236665 119.622597,12.6508335 120.231597,12.8345 C120.840597,13.0181665 121.609097,13.1873335 122.537097,13.342 C123.658431,13.516 124.663764,13.748 125.553097,14.038 C126.442431,14.328 127.191597,14.7001665 127.800597,15.1545 C128.409597,15.6088335 128.878431,16.1646665 129.207097,16.822 C129.535764,17.4793335 129.700097,18.2816665 129.700097,19.229 C129.700097,20.1376665 129.530931,20.969 129.192597,21.723 C128.854264,22.477 128.370931,23.1198335 127.742597,23.6515 C127.114264,24.1831665 126.340931,24.5988335 125.422597,24.8985 C124.504264,25.1981665 123.465097,25.348 122.305097,25.348 C121.067764,25.348 119.980264,25.1933335 119.042597,24.884 C118.104931,24.5746665 117.312264,24.1445 116.664597,23.5935 C116.016931,23.0425 115.519097,22.3996665 115.171097,21.665 C114.823097,20.9303335 114.629764,20.1376665 114.591097,19.287 L117.085097,18.91 C117.123764,19.4513335 117.239764,19.9878335 117.433097,20.5195 C117.626431,21.0511665 117.926097,21.5248335 118.332097,21.9405 C118.738097,22.3561665 119.264931,22.6945 119.912597,22.9555 C120.560264,23.2165 121.357764,23.347 122.305097,23.347 C123.851764,23.347 125.026264,22.999 125.828597,22.303 C126.630931,21.607 127.032097,20.65 127.032097,19.432 C127.032097,18.8906665 126.945097,18.4121665 126.771097,17.9965 C126.597097,17.5808335 126.311931,17.2183335 125.915597,16.909 C125.519264,16.5996665 124.992431,16.3435 124.335097,16.1405 C123.677764,15.9375 122.875431,15.7683335 121.928097,15.633 C119.704764,15.3236665 118.013097,14.7436665 116.853097,13.893 C115.693097,13.0423335 115.113097,11.776 115.113097,10.094 C115.113097,9.20466652 115.282264,8.40716652 115.620597,7.7015 C115.958931,6.99583348 116.432597,6.3965 117.041597,5.9035 C117.650597,5.4105 118.385264,5.02866652 119.245597,4.758 C120.105931,4.48733348 121.048431,4.352 122.073097,4.352 C124.103097,4.352 125.741597,4.82566652 126.988597,5.773 C128.235597,6.72033348 128.994431,8.02533348 129.265097,9.688 L126.771097,10.326 C126.597097,9.108 126.142764,8.14616652 125.408097,7.4405 C124.673431,6.73483348 123.552097,6.382 122.044097,6.382 C120.555431,6.382 119.463097,6.701 118.767097,7.339 C118.071097,7.977 117.723097,8.818 117.723097,9.862 Z M139.615984,24.797 C139.345318,24.9516665 138.992484,25.0821665 138.557484,25.1885 C138.122484,25.2948335 137.653651,25.348 137.150984,25.348 C136.551651,25.348 136.029651,25.2561665 135.584984,25.0725 C135.140318,24.8888335 134.772984,24.6423335 134.482984,24.333 C134.192984,24.0236665 133.975484,23.666 133.830484,23.26 C133.685484,22.854 133.612984,22.4286665 133.612984,21.984 L133.612984,13.168 L131.292984,13.168 L131.292984,11.312 L133.612984,11.312 L133.612984,7.397 L136.048984,6.295 L136.048984,11.312 L139.238984,11.312 L139.238984,13.168 L136.048984,13.168 L136.048984,21.752 C136.048984,22.2546665 136.174651,22.6413335 136.425984,22.912 C136.677318,23.1826665 137.025318,23.318 137.469984,23.318 C137.721318,23.318 137.962984,23.2793335 138.194984,23.202 C138.426984,23.1246665 138.639651,23.0183335 138.832984,22.883 L139.615984,24.797 Z M147.849871,10.964 C148.893871,10.964 149.821871,11.1428335 150.633871,11.5005 C151.445871,11.8581665 152.137038,12.356 152.707371,12.994 C153.277705,13.632 153.707871,14.3908335 153.997871,15.2705 C154.287871,16.1501665 154.432871,17.112 154.432871,18.156 C154.432871,19.2 154.287871,20.1618335 153.997871,21.0415 C153.707871,21.9211665 153.277705,22.68 152.707371,23.318 C152.137038,23.956 151.445871,24.4538335 150.633871,24.8115 C149.821871,25.1691665 148.893871,25.348 147.849871,25.348 C146.805871,25.348 145.877871,25.1691665 145.065871,24.8115 C144.253871,24.4538335 143.562705,23.956 142.992371,23.318 C142.422038,22.68 141.991871,21.9211665 141.701871,21.0415 C141.411871,20.1618335 141.266871,19.2 141.266871,18.156 C141.266871,17.112 141.411871,16.1501665 141.701871,15.2705 C141.991871,14.3908335 142.422038,13.632 142.992371,12.994 C143.562705,12.356 144.253871,11.8581665 145.065871,11.5005 C145.877871,11.1428335 146.805871,10.964 147.849871,10.964 Z M147.849871,23.405 C148.526538,23.405 149.121038,23.2648335 149.633371,22.9845 C150.145705,22.7041665 150.571038,22.3271665 150.909371,21.8535 C151.247705,21.3798335 151.499038,20.824 151.663371,20.186 C151.827705,19.548 151.909871,18.8713335 151.909871,18.156 C151.909871,17.4406665 151.827705,16.764 151.663371,16.126 C151.499038,15.488 151.247705,14.9321665 150.909371,14.4585 C150.571038,13.9848335 150.145705,13.6078335 149.633371,13.3275 C149.121038,13.0471665 148.526538,12.907 147.849871,12.907 C147.173205,12.907 146.578705,13.0471665 146.066371,13.3275 C145.554038,13.6078335 145.128705,13.9848335 144.790371,14.4585 C144.452038,14.9321665 144.200705,15.488 144.036371,16.126 C143.872038,16.764 143.789871,17.4406665 143.789871,18.156 C143.789871,18.8713335 143.872038,19.548 144.036371,20.186 C144.200705,20.824 144.452038,21.3798335 144.790371,21.8535 C145.128705,22.3271665 145.554038,22.7041665 146.066371,22.9845 C146.578705,23.2648335 147.173205,23.405 147.849871,23.405 Z M165.392759,13.545 C165.199425,13.371 164.972259,13.2308335 164.711259,13.1245 C164.450259,13.0181665 164.155425,12.965 163.826759,12.965 C163.362759,12.965 162.922925,13.0761665 162.507259,13.2985 C162.091592,13.5208335 161.729092,13.835 161.419759,14.241 C161.110425,14.647 160.863925,15.1351665 160.680259,15.7055 C160.496592,16.2758335 160.404759,16.909 160.404759,17.605 L160.404759,25 L157.968759,25 L157.968759,11.312 L160.259759,11.312 L160.259759,13.458 C160.607759,12.6266665 161.144259,12.0031665 161.869259,11.5875 C162.594259,11.1718335 163.391759,10.964 164.261759,10.964 C164.532425,10.964 164.817592,10.9881665 165.117259,11.0365 C165.416925,11.0848335 165.692425,11.167 165.943759,11.283 L165.392759,13.545 Z M179.165646,21.868 C178.643646,22.912 177.933146,23.753 177.034146,24.391 C176.135146,25.029 174.970312,25.348 173.539646,25.348 C172.514979,25.348 171.596646,25.1691665 170.784646,24.8115 C169.972646,24.4538335 169.286312,23.9511665 168.725646,23.3035 C168.164979,22.6558335 167.739646,21.8921665 167.449646,21.0125 C167.159646,20.1328335 167.014646,19.171 167.014646,18.127 C167.014646,17.1023335 167.164479,16.1501665 167.464146,15.2705 C167.763812,14.3908335 168.189146,13.632 168.740146,12.994 C169.291146,12.356 169.967812,11.8581665 170.770146,11.5005 C171.572479,11.1428335 172.466646,10.964 173.452646,10.964 C174.496646,10.964 175.405312,11.1525 176.178646,11.5295 C176.951979,11.9065 177.594812,12.4091665 178.107146,13.0375 C178.619479,13.6658335 179.001312,14.3908335 179.252646,15.2125 C179.503979,16.0341665 179.629646,16.8896665 179.629646,17.779 L179.629646,18.591 L169.508646,18.591 C169.527979,19.229 169.624646,19.8428335 169.798646,20.4325 C169.972646,21.0221665 170.219146,21.5441665 170.538146,21.9985 C170.857146,22.4528335 171.267979,22.8105 171.770646,23.0715 C172.273312,23.3325 172.872646,23.463 173.568646,23.463 C174.515979,23.463 175.240979,23.2503335 175.743646,22.825 C176.246312,22.3996665 176.671646,21.7906665 177.019646,20.998 L179.165646,21.868 Z M173.394646,12.849 C172.292646,12.849 171.412979,13.2211665 170.755646,13.9655 C170.098312,14.7098335 169.711646,15.6426665 169.595646,16.764 L177.135646,16.764 C177.077646,15.546 176.705479,14.589 176.019146,13.893 C175.332812,13.197 174.457979,12.849 173.394646,12.849 Z M180.903533,11.312 L183.223533,11.312 L183.223533,8.731 C183.223533,7.919 183.354033,7.23266652 183.615033,6.672 C183.876033,6.11133348 184.214366,5.66183348 184.630033,5.3235 C185.045699,4.98516652 185.519366,4.73866652 186.051033,4.584 C186.582699,4.42933348 187.119199,4.352 187.660533,4.352 C188.298533,4.352 188.922033,4.43416652 189.531033,4.5985 C190.140033,4.76283348 190.608866,4.961 190.937533,5.193 L189.864533,7.165 C189.651866,6.991 189.371533,6.8315 189.023533,6.6865 C188.675533,6.5415 188.279199,6.469 187.834533,6.469 C187.119199,6.469 186.577866,6.68166652 186.210533,7.107 C185.843199,7.53233348 185.659533,8.122 185.659533,8.876 L185.659533,11.312 L188.849533,11.312 L188.849533,13.168 L185.659533,13.168 L185.659533,25 L183.223533,25 L183.223533,13.168 L180.903533,13.168 L180.903533,11.312 Z M199.28742,13.545 C199.094087,13.371 198.86692,13.2308335 198.60592,13.1245 C198.34492,13.0181665 198.050087,12.965 197.72142,12.965 C197.25742,12.965 196.817587,13.0761665 196.40192,13.2985 C195.986253,13.5208335 195.623753,13.835 195.31442,14.241 C195.005087,14.647 194.758587,15.1351665 194.57492,15.7055 C194.391253,16.2758335 194.29942,16.909 194.29942,17.605 L194.29942,25 L191.86342,25 L191.86342,11.312 L194.15442,11.312 L194.15442,13.458 C194.50242,12.6266665 195.03892,12.0031665 195.76392,11.5875 C196.48892,11.1718335 197.28642,10.964 198.15642,10.964 C198.427087,10.964 198.712253,10.9881665 199.01192,11.0365 C199.311587,11.0848335 199.587087,11.167 199.83842,11.283 L199.28742,13.545 Z M207.492307,10.964 C208.536307,10.964 209.464307,11.1428335 210.276307,11.5005 C211.088307,11.8581665 211.779474,12.356 212.349807,12.994 C212.920141,13.632 213.350307,14.3908335 213.640307,15.2705 C213.930307,16.1501665 214.075307,17.112 214.075307,18.156 C214.075307,19.2 213.930307,20.1618335 213.640307,21.0415 C213.350307,21.9211665 212.920141,22.68 212.349807,23.318 C211.779474,23.956 211.088307,24.4538335 210.276307,24.8115 C209.464307,25.1691665 208.536307,25.348 207.492307,25.348 C206.448307,25.348 205.520307,25.1691665 204.708307,24.8115 C203.896307,24.4538335 203.205141,23.956 202.634807,23.318 C202.064474,22.68 201.634307,21.9211665 201.344307,21.0415 C201.054307,20.1618335 200.909307,19.2 200.909307,18.156 C200.909307,17.112 201.054307,16.1501665 201.344307,15.2705 C201.634307,14.3908335 202.064474,13.632 202.634807,12.994 C203.205141,12.356 203.896307,11.8581665 204.708307,11.5005 C205.520307,11.1428335 206.448307,10.964 207.492307,10.964 Z M207.492307,23.405 C208.168974,23.405 208.763474,23.2648335 209.275807,22.9845 C209.788141,22.7041665 210.213474,22.3271665 210.551807,21.8535 C210.890141,21.3798335 211.141474,20.824 211.305807,20.186 C211.470141,19.548 211.552307,18.8713335 211.552307,18.156 C211.552307,17.4406665 211.470141,16.764 211.305807,16.126 C211.141474,15.488 210.890141,14.9321665 210.551807,14.4585 C210.213474,13.9848335 209.788141,13.6078335 209.275807,13.3275 C208.763474,13.0471665 208.168974,12.907 207.492307,12.907 C206.815641,12.907 206.221141,13.0471665 205.708807,13.3275 C205.196474,13.6078335 204.771141,13.9848335 204.432807,14.4585 C204.094474,14.9321665 203.843141,15.488 203.678807,16.126 C203.514474,16.764 203.432307,17.4406665 203.432307,18.156 C203.432307,18.8713335 203.514474,19.548 203.678807,20.186 C203.843141,20.824 204.094474,21.3798335 204.432807,21.8535 C204.771141,22.3271665 205.196474,22.7041665 205.708807,22.9845 C206.221141,23.2648335 206.815641,23.405 207.492307,23.405 Z M217.611194,11.312 L219.902194,11.312 L219.902194,13.371 C220.385528,12.6363335 220.970361,12.0515 221.656694,11.6165 C222.343028,11.1815 223.198528,10.964 224.223194,10.964 C224.880528,10.964 225.508861,11.0606665 226.108194,11.254 C226.707528,11.4473335 227.224694,11.7325 227.659694,12.1095 C228.094694,12.4865 228.442694,12.9601665 228.703694,13.5305 C228.964694,14.1008335 229.095194,14.763 229.095194,15.517 L229.095194,25 L226.659194,25 L226.659194,15.894 C226.659194,15.372 226.572194,14.9273335 226.398194,14.56 C226.224194,14.1926665 225.997028,13.8881665 225.716694,13.6465 C225.436361,13.4048335 225.122194,13.2308335 224.774194,13.1245 C224.426194,13.0181665 224.078194,12.965 223.730194,12.965 C223.246861,12.965 222.782861,13.0713335 222.338194,13.284 C221.893528,13.4966665 221.502028,13.7963335 221.163694,14.183 C220.825361,14.5696665 220.554694,15.0481665 220.351694,15.6185 C220.148694,16.1888335 220.047194,16.8316665 220.047194,17.547 L220.047194,25 L217.611194,25 L217.611194,11.312 Z M239.823081,24.797 C239.552415,24.9516665 239.199581,25.0821665 238.764581,25.1885 C238.329581,25.2948335 237.860748,25.348 237.358081,25.348 C236.758748,25.348 236.236748,25.2561665 235.792081,25.0725 C235.347415,24.8888335 234.980081,24.6423335 234.690081,24.333 C234.400081,24.0236665 234.182581,23.666 234.037581,23.26 C233.892581,22.854 233.820081,22.4286665 233.820081,21.984 L233.820081,13.168 L231.500081,13.168 L231.500081,11.312 L233.820081,11.312 L233.820081,7.397 L236.256081,6.295 L236.256081,11.312 L239.446081,11.312 L239.446081,13.168 L236.256081,13.168 L236.256081,21.752 C236.256081,22.2546665 236.381748,22.6413335 236.633081,22.912 C236.884415,23.1826665 237.232415,23.318 237.677081,23.318 C237.928415,23.318 238.170081,23.2793335 238.402081,23.202 C238.634081,23.1246665 238.846748,23.0183335 239.040081,22.883 L239.823081,24.797 Z" id="ExampleStorefront"></path>
                    <path d="M1.92,53 C1.92,50.7866669 2.22,48.7866669 2.82,47 C3.42,45.2133331 4.28666687,43.6866669 5.42,42.42 C6.55333313,41.1533331 7.93333313,40.18 9.56,39.5 C11.1866669,38.82 13.0133331,38.48 15.04,38.48 C17.92,38.48 20.2866669,39.1333331 22.14,40.44 C23.9933331,41.7466669 25.3733331,43.6133331 26.28,46.04 L21.76,47.64 C21.2266669,46.0666669 20.4133331,44.8 19.32,43.84 C18.2266669,42.88 16.76,42.4 14.92,42.4 C13.6133331,42.4 12.4533331,42.6533331 11.44,43.16 C10.4266669,43.6666669 9.58,44.3866669 8.9,45.32 C8.22,46.2533331 7.7,47.3733331 7.34,48.68 C6.98,49.9866669 6.8,51.4266669 6.8,53 C6.8,54.5733331 6.97333313,56.0066669 7.32,57.3 C7.66666687,58.5933331 8.18666687,59.7066669 8.88,60.64 C9.57333313,61.5733331 10.42,62.3 11.42,62.82 C12.42,63.34 13.5866669,63.6 14.92,63.6 C16.68,63.6 18.1066669,63.1466669 19.2,62.24 C20.2933331,61.3333331 21.1333331,60.08 21.72,58.48 L26.2,60.12 C25.2666669,62.4133331 23.88,64.22 22.04,65.54 C20.2,66.86 17.84,67.52 14.96,67.52 C12.9333331,67.52 11.1133331,67.18 9.5,66.5 C7.88666687,65.82 6.52,64.8533331 5.4,63.6 C4.28,62.3466669 3.42,60.82 2.82,59.02 C2.22,57.22 1.92,55.2133331 1.92,53 Z M38.56,47.52 C40.0266669,47.52 41.3466669,47.76 42.52,48.24 C43.6933331,48.72 44.6933331,49.4 45.52,50.28 C46.3466669,51.16 46.98,52.2133331 47.42,53.44 C47.86,54.6666669 48.08,56.0266669 48.08,57.52 C48.08,59.0133331 47.86,60.3733331 47.42,61.6 C46.98,62.8266669 46.3466669,63.88 45.52,64.76 C44.6933331,65.64 43.6933331,66.32 42.52,66.8 C41.3466669,67.28 40.0266669,67.52 38.56,67.52 C37.0933331,67.52 35.7733331,67.28 34.6,66.8 C33.4266669,66.32 32.4333331,65.64 31.62,64.76 C30.8066669,63.88 30.18,62.8266669 29.74,61.6 C29.3,60.3733331 29.08,59.0133331 29.08,57.52 C29.08,56.0266669 29.3,54.6666669 29.74,53.44 C30.18,52.2133331 30.8066669,51.16 31.62,50.28 C32.4333331,49.4 33.4266669,48.72 34.6,48.24 C35.7733331,47.76 37.0933331,47.52 38.56,47.52 Z M38.56,64.04 C39.3866669,64.04 40.1066669,63.8666669 40.72,63.52 C41.3333331,63.1733331 41.84,62.7066669 42.24,62.12 C42.64,61.5333331 42.94,60.8466669 43.14,60.06 C43.34,59.2733331 43.44,58.4266669 43.44,57.52 C43.44,56.6133331 43.34,55.7666669 43.14,54.98 C42.94,54.1933331 42.64,53.5066669 42.24,52.92 C41.84,52.3333331 41.3333331,51.8666669 40.72,51.52 C40.1066669,51.1733331 39.3866669,51 38.56,51 C37.7333331,51 37.02,51.1733331 36.42,51.52 C35.82,51.8666669 35.32,52.3333331 34.92,52.92 C34.52,53.5066669 34.22,54.1933331 34.02,54.98 C33.82,55.7666669 33.72,56.6133331 33.72,57.52 C33.72,58.4266669 33.82,59.2733331 34.02,60.06 C34.22,60.8466669 34.52,61.5333331 34.92,62.12 C35.32,62.7066669 35.82,63.1733331 36.42,63.52 C37.02,63.8666669 37.7333331,64.04 38.56,64.04 Z M52.52,48.04 L56.88,48.04 L56.88,50.92 C57.4133331,49.9333331 58.14,49.12 59.06,48.48 C59.98,47.84 61.1333331,47.52 62.52,47.52 C63.8533331,47.52 65.02,47.8133331 66.02,48.4 C67.02,48.9866669 67.7733331,49.8266669 68.28,50.92 C68.5466669,50.4933331 68.88,50.08 69.28,49.68 C69.68,49.28 70.14,48.92 70.66,48.6 C71.18,48.28 71.7466669,48.02 72.36,47.82 C72.9733331,47.62 73.64,47.52 74.36,47.52 C75.2133331,47.52 76.0266669,47.6533331 76.8,47.92 C77.5733331,48.1866669 78.2466669,48.5866669 78.82,49.12 C79.3933331,49.6533331 79.8466669,50.3133331 80.18,51.1 C80.5133331,51.8866669 80.68,52.8133331 80.68,53.88 L80.68,67 L76.12,67 L76.12,55 C76.12,53.64 75.8,52.6733331 75.16,52.1 C74.52,51.5266669 73.7866669,51.24 72.96,51.24 C72.4266669,51.24 71.9133331,51.36 71.42,51.6 C70.9266669,51.84 70.4933331,52.2 70.12,52.68 C69.7466669,53.16 69.4466669,53.76 69.22,54.48 C68.9933331,55.2 68.88,56.0266669 68.88,56.96 L68.88,67 L64.32,67 L64.32,55 C64.32,53.64 63.9933331,52.6733331 63.34,52.1 C62.6866669,51.5266669 61.9466669,51.24 61.12,51.24 C60.5866669,51.24 60.08,51.36 59.6,51.6 C59.12,51.84 58.6933331,52.2 58.32,52.68 C57.9466669,53.16 57.6466669,53.76 57.42,54.48 C57.1933331,55.2 57.08,56.0266669 57.08,56.96 L57.08,67 L52.52,67 L52.52,48.04 Z M96.76,67.52 C95.2133331,67.52 93.9666669,67.2266669 93.02,66.64 C92.0733331,66.0533331 91.3333331,65.3866669 90.8,64.64 L90.8,75 L86.24,75 L86.24,48.04 L90.6,48.04 L90.6,50.84 C91.1333331,49.9066669 91.9133331,49.12 92.94,48.48 C93.9666669,47.84 95.24,47.52 96.76,47.52 C97.9866669,47.52 99.12,47.7533331 100.16,48.22 C101.2,48.6866669 102.1,49.3533331 102.86,50.22 C103.62,51.0866669 104.22,52.1333331 104.66,53.36 C105.1,54.5866669 105.32,55.9733331 105.32,57.52 C105.32,59.0666669 105.1,60.4533331 104.66,61.68 C104.22,62.9066669 103.62,63.9533331 102.86,64.82 C102.1,65.6866669 101.2,66.3533331 100.16,66.82 C99.12,67.2866669 97.9866669,67.52 96.76,67.52 Z M90.76,58.44 C90.76,59.4266669 90.92,60.2666669 91.24,60.96 C91.56,61.6533331 91.96,62.22 92.44,62.66 C92.92,63.1 93.46,63.42 94.06,63.62 C94.66,63.82 95.24,63.92 95.8,63.92 C96.5466669,63.92 97.22,63.76 97.82,63.44 C98.42,63.12 98.9333331,62.6733331 99.36,62.1 C99.7866669,61.5266669 100.113333,60.8533331 100.34,60.08 C100.566667,59.3066669 100.68,58.4533331 100.68,57.52 C100.68,56.6133331 100.566667,55.7666669 100.34,54.98 C100.113333,54.1933331 99.7866669,53.5133331 99.36,52.94 C98.9333331,52.3666669 98.42,51.92 97.82,51.6 C97.22,51.28 96.5466669,51.12 95.8,51.12 C95.24,51.12 94.66,51.22 94.06,51.42 C93.46,51.62 92.92,51.94 92.44,52.38 C91.96,52.82 91.56,53.3866669 91.24,54.08 C90.92,54.7733331 90.76,55.6133331 90.76,56.6 L90.76,58.44 Z M117.92,47.52 C119.386667,47.52 120.706667,47.76 121.88,48.24 C123.053333,48.72 124.053333,49.4 124.88,50.28 C125.706667,51.16 126.34,52.2133331 126.78,53.44 C127.22,54.6666669 127.44,56.0266669 127.44,57.52 C127.44,59.0133331 127.22,60.3733331 126.78,61.6 C126.34,62.8266669 125.706667,63.88 124.88,64.76 C124.053333,65.64 123.053333,66.32 121.88,66.8 C120.706667,67.28 119.386667,67.52 117.92,67.52 C116.453333,67.52 115.133333,67.28 113.96,66.8 C112.786667,66.32 111.793333,65.64 110.98,64.76 C110.166667,63.88 109.54,62.8266669 109.1,61.6 C108.66,60.3733331 108.44,59.0133331 108.44,57.52 C108.44,56.0266669 108.66,54.6666669 109.1,53.44 C109.54,52.2133331 110.166667,51.16 110.98,50.28 C111.793333,49.4 112.786667,48.72 113.96,48.24 C115.133333,47.76 116.453333,47.52 117.92,47.52 Z M117.92,64.04 C118.746667,64.04 119.466667,63.8666669 120.08,63.52 C120.693333,63.1733331 121.2,62.7066669 121.6,62.12 C122,61.5333331 122.3,60.8466669 122.5,60.06 C122.7,59.2733331 122.8,58.4266669 122.8,57.52 C122.8,56.6133331 122.7,55.7666669 122.5,54.98 C122.3,54.1933331 122,53.5066669 121.6,52.92 C121.2,52.3333331 120.693333,51.8666669 120.08,51.52 C119.466667,51.1733331 118.746667,51 117.92,51 C117.093333,51 116.38,51.1733331 115.78,51.52 C115.18,51.8666669 114.68,52.3333331 114.28,52.92 C113.88,53.5066669 113.58,54.1933331 113.38,54.98 C113.18,55.7666669 113.08,56.6133331 113.08,57.52 C113.08,58.4266669 113.18,59.2733331 113.38,60.06 C113.58,60.8466669 113.88,61.5333331 114.28,62.12 C114.68,62.7066669 115.18,63.1733331 115.78,63.52 C116.38,63.8666669 117.093333,64.04 117.92,64.04 Z M131.88,48.04 L136.24,48.04 L136.24,50.92 C136.8,49.9333331 137.56,49.12 138.52,48.48 C139.48,47.84 140.706667,47.52 142.2,47.52 C143.106667,47.52 143.973333,47.6533331 144.8,47.92 C145.626667,48.1866669 146.34,48.5866669 146.94,49.12 C147.54,49.6533331 148.02,50.32 148.38,51.12 C148.74,51.92 148.92,52.8533331 148.92,53.92 L148.92,67 L144.36,67 L144.36,55 C144.36,54.3333331 144.26,53.76 144.06,53.28 C143.86,52.8 143.593333,52.4066669 143.26,52.1 C142.926667,51.7933331 142.546667,51.5733331 142.12,51.44 C141.693333,51.3066669 141.266667,51.24 140.84,51.24 C140.28,51.24 139.733333,51.36 139.2,51.6 C138.666667,51.84 138.193333,52.2 137.78,52.68 C137.366667,53.16 137.04,53.76 136.8,54.48 C136.56,55.2 136.44,56.0266669 136.44,56.96 L136.44,67 L131.88,67 L131.88,48.04 Z M170.64,62.84 C169.893333,64.28 168.86,65.42 167.54,66.26 C166.22,67.1 164.56,67.52 162.56,67.52 C161.12,67.52 159.82,67.28 158.66,66.8 C157.5,66.32 156.513333,65.64 155.7,64.76 C154.886667,63.88 154.26,62.8266669 153.82,61.6 C153.38,60.3733331 153.16,59 153.16,57.48 C153.16,55.9866669 153.38,54.6266669 153.82,53.4 C154.26,52.1733331 154.886667,51.1266669 155.7,50.26 C156.513333,49.3933331 157.486667,48.72 158.62,48.24 C159.753333,47.76 161.013333,47.52 162.4,47.52 C163.92,47.52 165.24,47.7866669 166.36,48.32 C167.48,48.8533331 168.406667,49.5666669 169.14,50.46 C169.873333,51.3533331 170.42,52.3933331 170.78,53.58 C171.14,54.7666669 171.32,56 171.32,57.28 L171.32,58.56 L157.8,58.56 C157.826667,59.28 157.933333,59.9733331 158.12,60.64 C158.306667,61.3066669 158.586667,61.9 158.96,62.42 C159.333333,62.94 159.806667,63.3533331 160.38,63.66 C160.953333,63.9666669 161.666667,64.12 162.52,64.12 C163.693333,64.12 164.593333,63.8533331 165.22,63.32 C165.846667,62.7866669 166.346667,62.1066669 166.72,61.28 L170.64,62.84 Z M162.36,50.84 C161,50.84 159.946667,51.28 159.2,52.16 C158.453333,53.04 158.013333,54.1733331 157.88,55.56 L166.76,55.56 C166.706667,54.04 166.28,52.8733331 165.48,52.06 C164.68,51.2466669 163.64,50.84 162.36,50.84 Z M175.48,48.04 L179.84,48.04 L179.84,50.92 C180.4,49.9333331 181.16,49.12 182.12,48.48 C183.08,47.84 184.306667,47.52 185.8,47.52 C186.706667,47.52 187.573333,47.6533331 188.4,47.92 C189.226667,48.1866669 189.94,48.5866669 190.54,49.12 C191.14,49.6533331 191.62,50.32 191.98,51.12 C192.34,51.92 192.52,52.8533331 192.52,53.92 L192.52,67 L187.96,67 L187.96,55 C187.96,54.3333331 187.86,53.76 187.66,53.28 C187.46,52.8 187.193333,52.4066669 186.86,52.1 C186.526667,51.7933331 186.146667,51.5733331 185.72,51.44 C185.293333,51.3066669 184.866667,51.24 184.44,51.24 C183.88,51.24 183.333333,51.36 182.8,51.6 C182.266667,51.84 181.793333,52.2 181.38,52.68 C180.966667,53.16 180.64,53.76 180.4,54.48 C180.16,55.2 180.04,56.0266669 180.04,56.96 L180.04,67 L175.48,67 L175.48,48.04 Z M208.64,66.72 C208.16,66.96 207.58,67.1533331 206.9,67.3 C206.22,67.4466669 205.506667,67.52 204.76,67.52 C203,67.52 201.613333,67.06 200.6,66.14 C199.586667,65.22 199.08,63.88 199.08,62.12 L199.08,51.4 L195.88,51.4 L195.88,48.04 L199.08,48.04 L199.08,42.64 L203.6,40.56 L203.6,48.04 L207.88,48.04 L207.88,51.4 L203.6,51.4 L203.6,61.56 C203.6,62.3866669 203.766667,62.9666669 204.1,63.3 C204.433333,63.6333331 204.866667,63.8 205.4,63.8 C205.8,63.8 206.16,63.7333331 206.48,63.6 C206.8,63.4666669 207.106667,63.32 207.4,63.16 L208.64,66.72 Z M221.76,39 L226.48,39 L226.48,63.12 L238.8,63.12 L238.8,67 L221.76,67 L221.76,39 Z M241.96,41.28 C241.96,40.4266669 242.22,39.7533331 242.74,39.26 C243.26,38.7666669 243.933333,38.52 244.76,38.52 C245.586667,38.52 246.26,38.7666669 246.78,39.26 C247.3,39.7533331 247.56,40.4266669 247.56,41.28 C247.56,42.0533331 247.306667,42.7066669 246.8,43.24 C246.293333,43.7733331 245.613333,44.04 244.76,44.04 C243.906667,44.04 243.226667,43.7733331 242.72,43.24 C242.213333,42.7066669 241.96,42.0533331 241.96,41.28 Z M242.48,48.04 L247.04,48.04 L247.04,67 L242.48,67 L242.48,48.04 Z M263.32,47.52 C264.546667,47.52 265.68,47.7533331 266.72,48.22 C267.76,48.6866669 268.66,49.3533331 269.42,50.22 C270.18,51.0866669 270.78,52.1333331 271.22,53.36 C271.66,54.5866669 271.88,55.9733331 271.88,57.52 C271.88,59.0666669 271.66,60.4533331 271.22,61.68 C270.78,62.9066669 270.18,63.9533331 269.42,64.82 C268.66,65.6866669 267.76,66.3533331 266.72,66.82 C265.68,67.2866669 264.546667,67.52 263.32,67.52 C261.693333,67.52 260.386667,67.18 259.4,66.5 C258.413333,65.82 257.666667,65.0533331 257.16,64.2 L257.16,67 L252.8,67 L252.8,39 L257.36,39 L257.36,50.48 C257.92,49.68 258.693333,48.9866669 259.68,48.4 C260.666667,47.8133331 261.88,47.52 263.32,47.52 Z M257.32,58.44 C257.32,59.4266669 257.48,60.2666669 257.8,60.96 C258.12,61.6533331 258.52,62.22 259,62.66 C259.48,63.1 260.02,63.42 260.62,63.62 C261.22,63.82 261.8,63.92 262.36,63.92 C263.106667,63.92 263.78,63.76 264.38,63.44 C264.98,63.12 265.493333,62.6733331 265.92,62.1 C266.346667,61.5266669 266.673333,60.8533331 266.9,60.08 C267.126667,59.3066669 267.24,58.4533331 267.24,57.52 C267.24,56.6133331 267.126667,55.7666669 266.9,54.98 C266.673333,54.1933331 266.346667,53.5133331 265.92,52.94 C265.493333,52.3666669 264.98,51.92 264.38,51.6 C263.78,51.28 263.106667,51.12 262.36,51.12 C261.8,51.12 261.22,51.22 260.62,51.42 C260.02,51.62 259.48,51.94 259,52.38 C258.52,52.82 258.12,53.3866669 257.8,54.08 C257.48,54.7733331 257.32,55.6133331 257.32,56.6 L257.32,58.44 Z M287.68,52.16 C287.386667,51.92 287.046667,51.74 286.66,51.62 C286.273333,51.5 285.88,51.44 285.48,51.44 C284.92,51.44 284.366667,51.56 283.82,51.8 C283.273333,52.04 282.78,52.4066669 282.34,52.9 C281.9,53.3933331 281.546667,54.02 281.28,54.78 C281.013333,55.54 280.88,56.4266669 280.88,57.44 L280.88,67 L276.32,67 L276.32,48.04 L280.6,48.04 L280.6,51.12 C281.133333,49.92 281.873333,49.02 282.82,48.42 C283.766667,47.82 284.893333,47.52 286.2,47.52 C286.573333,47.52 286.973333,47.5533331 287.4,47.62 C287.826667,47.6866669 288.226667,47.8 288.6,47.96 L287.68,52.16 Z M303.04,67 C302.933333,66.8133331 302.84,66.4933331 302.76,66.04 C302.68,65.5866669 302.64,65.0933331 302.64,64.56 C302.026667,65.44 301.246667,66.1533331 300.3,66.7 C299.353333,67.2466669 298.12,67.52 296.6,67.52 C294.68,67.52 293.14,67.04 291.98,66.08 C290.82,65.12 290.24,63.8 290.24,62.12 C290.24,60.84 290.58,59.78 291.26,58.94 C291.94,58.1 292.846667,57.4266669 293.98,56.92 C295.113333,56.4133331 296.42,56.0533331 297.9,55.84 C299.38,55.6266669 300.933333,55.52 302.56,55.52 L302.56,54.32 C302.56,53.3066669 302.28,52.4866669 301.72,51.86 C301.16,51.2333331 300.28,50.92 299.08,50.92 C297.88,50.92 296.986667,51.2133331 296.4,51.8 C295.813333,52.3866669 295.506667,53.08 295.48,53.88 L291.08,53.24 C291.186667,52.3066669 291.473333,51.4866669 291.94,50.78 C292.406667,50.0733331 293.006667,49.48 293.74,49 C294.473333,48.52 295.313333,48.1533331 296.26,47.9 C297.206667,47.6466669 298.2,47.52 299.24,47.52 C300.386667,47.52 301.433333,47.6666669 302.38,47.96 C303.326667,48.2533331 304.14,48.6866669 304.82,49.26 C305.5,49.8333331 306.033333,50.5466669 306.42,51.4 C306.806667,52.2533331 307,53.2533331 307,54.4 L307,64.4 C307,64.9866669 307.04,65.4733331 307.12,65.86 C307.2,66.2466669 307.306667,66.6266669 307.44,67 L303.04,67 Z M297.84,64.16 C298.426667,64.16 299.006667,64.0666669 299.58,63.88 C300.153333,63.6933331 300.66,63.42 301.1,63.06 C301.54,62.7 301.893333,62.2666669 302.16,61.76 C302.426667,61.2533331 302.56,60.6666669 302.56,60 L302.56,58.44 C300.213333,58.44 298.32,58.6933331 296.88,59.2 C295.44,59.7066669 294.72,60.5866669 294.72,61.84 C294.72,62.6133331 295.013333,63.1933331 295.6,63.58 C296.186667,63.9666669 296.933333,64.16 297.84,64.16 Z M323.76,52.16 C323.466667,51.92 323.126667,51.74 322.74,51.62 C322.353333,51.5 321.96,51.44 321.56,51.44 C321,51.44 320.446667,51.56 319.9,51.8 C319.353333,52.04 318.86,52.4066669 318.42,52.9 C317.98,53.3933331 317.626667,54.02 317.36,54.78 C317.093333,55.54 316.96,56.4266669 316.96,57.44 L316.96,67 L312.4,67 L312.4,48.04 L316.68,48.04 L316.68,51.12 C317.213333,49.92 317.953333,49.02 318.9,48.42 C319.846667,47.82 320.973333,47.52 322.28,47.52 C322.653333,47.52 323.053333,47.5533331 323.48,47.62 C323.906667,47.6866669 324.306667,47.8 324.68,47.96 L323.76,52.16 Z M329.68,75 L332.8,67.04 L325.36,48.04 L330,48.04 C330.773333,50.2266669 331.506667,52.2533331 332.2,54.12 L333.08,56.52 C333.373333,57.32 333.646667,58.0666669 333.9,58.76 C334.153333,59.4533331 334.373333,60.08 334.56,60.64 C334.746667,61.2 334.893333,61.6133331 335,61.88 L335.08,61.88 C335.16,61.6133331 335.293333,61.2 335.48,60.64 C335.666667,60.08 335.88,59.4533331 336.12,58.76 C336.36,58.0666669 336.626667,57.32 336.92,56.52 L337.8,54.12 C338.493333,52.2533331 339.226667,50.2266669 340,48.04 L344.32,48.04 L334.12,75 L329.68,75 Z" id="ComponentLibrary"></path>
                </g>
            </g>
        </g>
    </g>
</svg>